<svg xmlns="http://www.w3.org/2000/svg" viewBox="0 0 298 169" width="298" height="169" preserveAspectRatio="xMidYMid meet" style="width: 100%; height: 100%; transform: translate3d(0px, 0px, 0px);"><defs><clipPath id="__lottie_element_257"><rect width="298" height="169" x="0" y="0"></rect></clipPath></defs><g clip-path="url(#__lottie_element_257)"><g transform="matrix(1,0,0,1,109.75983428955078,84.5)" opacity="1" style="display: block;"><g opacity="1" transform="matrix(1,0,0,1,0,0)"><path stroke-linecap="butt" stroke-linejoin="miter" fill-opacity="0" stroke-miterlimit="4" stroke="#ce8eeb" stroke-opacity="1" strokeWidth="2" d=" M0,-54.5 C30.078550338745117,-54.5 54.5,-30.078550338745117 54.5,0 C54.5,30.078550338745117 30.078550338745117,54.5 0,54.5 C-30.078550338745117,54.5 -54.5,30.078550338745117 -54.5,0 C-54.5,-30.078550338745117 -30.078550338745117,-54.5 0,-54.5z"></path></g></g><g transform="matrix(1,0,0,1,188.2401580810547,84.5)" opacity="1" style="display: block;"><g opacity="1" transform="matrix(1,0,0,1,0,0)"><path stroke-linecap="butt" stroke-linejoin="miter" fill-opacity="0" stroke-miterlimit="4" stroke="#ce8eeb" stroke-opacity="1" strokeWidth="2" d=" M0,-54.5 C30.078550338745117,-54.5 54.5,-30.078550338745117 54.5,0 C54.5,30.078550338745117 30.078550338745117,54.5 0,54.5 C-30.078550338745117,54.5 -54.5,30.078550338745117 -54.5,0 C-54.5,-30.078550338745117 -30.078550338745117,-54.5 0,-54.5z"></path></g></g><g transform="matrix(1,0,0,1,129.07801818847656,84.5)" opacity="1" style="display: block;"><g opacity="1" transform="matrix(1,0,0,1,0,0)"><path stroke-linecap="butt" stroke-linejoin="miter" fill-opacity="0" stroke-miterlimit="4" stroke="#ce8eeb" stroke-opacity="1" strokeWidth="2" d=" M0,-54.5 C30.078550338745117,-54.5 54.5,-30.078550338745117 54.5,0 C54.5,30.078550338745117 30.078550338745117,54.5 0,54.5 C-30.078550338745117,54.5 -54.5,30.078550338745117 -54.5,0 C-54.5,-30.078550338745117 -30.078550338745117,-54.5 0,-54.5z"></path></g></g><g transform="matrix(1,0,0,1,168.92198181152344,84.5)" opacity="1" style="display: block;"><g opacity="1" transform="matrix(1,0,0,1,0,0)"><path stroke-linecap="butt" stroke-linejoin="miter" fill-opacity="0" stroke-miterlimit="4" stroke="#ce8eeb" stroke-opacity="1" strokeWidth="2" d=" M0,-54.5 C30.078550338745117,-54.5 54.5,-30.078550338745117 54.5,0 C54.5,30.078550338745117 30.078550338745117,54.5 0,54.5 C-30.078550338745117,54.5 -54.5,30.078550338745117 -54.5,0 C-54.5,-30.078550338745117 -30.078550338745117,-54.5 0,-54.5z"></path></g></g></g></svg>