<svg width="440" height="2310" viewBox="0 0 440 2310" fill="none" xmlns="http://www.w3.org/2000/svg">
<path d="M33.1973 360C23.1973 360 15.1973 357.333 9.19727 352C3.19727 346.667 0.197266 339.333 0.197266 330V124C0.197266 85.3333 11.1973 55 33.1973 33C55.1973 11 85.5306 -1.90735e-05 124.197 -1.90735e-05C142.864 -1.90735e-05 160.364 4.66665 176.697 14C193.364 23 207.697 36 219.697 53C231.364 35.6667 245.364 22.5 261.697 13.5C278.364 4.49998 296.364 -1.90735e-05 315.697 -1.90735e-05C354.364 -1.90735e-05 384.697 11 406.697 33C428.697 55 439.697 85.3333 439.697 124V330C439.697 339 436.531 346.333 430.197 352C424.197 357.333 416.197 360 406.197 360C396.197 360 388.197 357.333 382.197 352C376.197 346.667 373.197 339.333 373.197 330V124C373.197 98.6666 368.531 80.5 359.197 69.5C349.864 58.1667 334.531 52.5 313.197 52.5C293.864 52.5 278.864 58.6667 268.197 71C257.864 83.3333 252.697 101 252.697 124V330C252.697 339.333 249.697 346.667 243.697 352C237.697 357.333 229.697 360 219.697 360C209.697 360 201.697 357.333 195.697 352C190.031 346.667 187.197 339.333 187.197 330V124C187.197 101.667 181.864 84.1666 171.197 71.5C160.531 58.8333 145.697 52.5 126.697 52.5C105.364 52.5 90.0306 58.1667 80.6973 69.5C71.3639 80.5 66.6973 98.6666 66.6973 124V330C66.6973 339 63.5306 346.333 57.1973 352C51.1973 357.333 43.1973 360 33.1973 360ZM219.828 1010C209.828 1010 201.828 1007.33 195.828 1002C189.828 996.667 186.828 989.333 186.828 980V680C186.828 670.667 189.828 663.333 195.828 658C201.828 652.667 209.828 650 219.828 650C229.495 650 237.495 652.667 243.828 658C250.161 663.333 253.328 670.667 253.328 680V980C253.328 989.333 250.161 996.667 243.828 1002C237.495 1007.33 229.495 1010 219.828 1010ZM96.6152 1660C86.6152 1660 78.6152 1657.33 72.6152 1652C66.6152 1646.67 63.6152 1639.33 63.6152 1630V1441.5C63.6152 1397.17 77.4486 1362.5 105.115 1337.5C132.782 1312.5 171.115 1300 220.115 1300C269.115 1300 307.449 1312.5 335.115 1337.5C362.782 1362.5 376.615 1397.17 376.615 1441.5V1630C376.615 1639.33 373.615 1646.67 367.615 1652C361.615 1657.33 353.615 1660 343.615 1660C333.615 1660 325.449 1657.33 319.115 1652C313.115 1646.33 310.115 1639 310.115 1630V1440C310.115 1411.67 302.449 1390 287.115 1375C271.782 1360 249.449 1352.5 220.115 1352.5C190.782 1352.5 168.449 1360 153.115 1375C137.782 1390 130.115 1411.67 130.115 1440V1630C130.115 1639 126.949 1646.33 120.615 1652C114.615 1657.33 106.615 1660 96.6152 1660ZM219.672 2310C209.672 2310 201.672 2307.33 195.672 2302C189.672 2296.67 186.672 2289.33 186.672 2280V2006.5H90.1719C80.5052 2006.5 72.8385 2004.33 67.1719 2000C61.8385 1995.33 59.1719 1989 59.1719 1981C59.1719 1972.67 61.8385 1966.33 67.1719 1962C72.5052 1957.33 80.1719 1955 90.1719 1955H349.672C359.672 1955 367.339 1957.33 372.672 1962C378.005 1966.33 380.672 1972.67 380.672 1981C380.672 1989 377.839 1995.33 372.172 2000C366.839 2004.33 359.339 2006.5 349.672 2006.5H253.172V2280C253.172 2289 250.005 2296.33 243.672 2302C237.672 2307.33 229.672 2310 219.672 2310Z" fill="#CE8EEB"/>
</svg>
