<svg xmlns="http://www.w3.org/2000/svg" viewBox="222.9794921875 8.829278945922852 127.13320922851562 104.72193145751953" width="127.13320922851562" height="104.72193145751953"><g transform="matrix(0.6791302561759949, 0, 0, 0.6791302561759949, -50.30249023437497, -38.64192962646484)"><g transform="matrix(1, 0, 0, 1, 0, 0)">
		<path class="st2" d="M469.5,105.3c0.3,3.1,0.6,4.3-0.8,6.7c-1.3,2.3,1.9,6.7,4.1,7.6c-1.4-2.1-1.7-5.1-0.3-4.8&#10;&#9;&#9;&#9;c1.2,0.3,2.2,0.6,3-0.2c0.2-0.2,0.3-0.3,0.4-0.6c0.8-1.5,0.2-2.5,0.8-2.6c0.6-0.1,2.8-0.9,2.2-4.1c0,0,0-0.1,0-0.1&#10;&#9;&#9;&#9;c0-0.7-0.1-1-0.2-1.2c-0.3-0.1-0.4-0.2-0.4-0.2s0.2-0.1,0.4,0.2c1.6,0.7,7.3,3.6,7.6,6.9c0.4-3.9-0.8-5.6-2.6-6.4&#10;&#9;&#9;&#9;c-1.8-0.8-1.4-2.8,0.8-1.4c1,0.6,2,1.1,2.9,1.6c1.1,0.6,1.8,1.3,1.8,2.4c0.9-3-0.1-4.1-1.8-4.8c-0.1,0-0.2-0.1-0.3-0.1&#10;&#9;&#9;&#9;c-2-0.7-3.2-3.6-1.1-3.2c0.4-0.1,0.9-0.1,1.5-0.1c2.1,0.2,4.5,1.5,4.5,1.5c-0.8-2.2-2.6-3.1-4.5-3.6c-0.4-0.1-0.9-0.2-1.3-0.3&#10;&#9;&#9;&#9;c-2-0.4-2.3-4.9,1.3-5.5c0.7-0.1,1.6-0.1,2.6,0.2c6.3,1.6,14.1,8.9,7.4,22.1c-6.7,13.2-7.2,15.9-3.1,16.8c2.3,0.2,2.8-3,2.8-5.4&#10;&#9;&#9;&#9;c0-2.4,3-5,2.9-0.9c0,4.1,0.3,5,0.3,5s3.1-1.2,1.7-5.3c-1.4-4.1-1.2-8.6-1-10.9c0.2-2.4,3.5-3.3,3.4,1c0,4.4,0.3,8.2,0.3,8.2&#10;&#9;&#9;&#9;s3.1-3,1.9-8.9c-1.2-5.9-2.1-6.7-2.5-7.7c-0.4-1,0.3-2.4,2.5-0.1c2.3,2.3,2.6,4.4,2.7,7.1c0,0,3.5-5.5-2.2-9.8&#10;&#9;&#9;&#9;c-5.7-4.2-7.2-7.7-5.4-7.1c1.6,0.6,6.3,2.2,8.1,3.8c-3.2-3.9-4.6-5.4-8.4-6.1c-4-0.7-6.5-3.4-4.1-3.3c2.4,0,7.8,1.3,7.8,1.3&#10;&#9;&#9;&#9;s-2.9-4.3-7.3-3.7c-4.3,0.6-11.1,1-5.4-1.8c5.8-2.8,7.3,0.5,7.3,0.5s-1.4-7.1-10.6,0.3c-0.7,0.5-1.4,0.8-1.8,0.9&#10;&#9;&#9;&#9;c-0.6,0.2-1,0.1-1,0.1s2.7-13.4-5.1-18.5c3.8,7.9,3.2,14.4,2.4,17.1c-1.3,0.5-2.5,2.5-2.5,3.9c-1.9,1.1-1.3-1-0.3-3.2&#10;&#9;&#9;&#9;c1-2.2,1.4-5.4,1.4-5.4s-4.5,7-5.1,10.9l-0.4,3c0,0,3.2-2.8,4.1-2.3c-0.8,3.1-2.3,5.6-5,4.9c0.4-4.6,0.7-9.3-0.4-13.6&#10;&#9;&#9;&#9;c-0.8-2.8-2.2-5.4-4.5-7.6c0,0,4.8,14.7,1.9,21.5C471.7,103,469.2,102.2,469.5,105.3z" style="fill: #ce8eeb;"/>
		<path class="st2" d="M512.8,159c-2.2-1.6-3.7-2.6-3.7-2.6s5,9.2,1.8,13.8c0.6,0,1.3,0,2,0.1c7.1,0.9,15,8.7,16.6,16.2&#10;&#9;&#9;&#9;c1.8,8.2-1.3,14.7-8.5,16.2c0.5-2.6-0.1-7.7-0.1-7.7s-1.7,0.8-4,0.4c-1.2-0.2-2.8-1.8-4-3.3c-1.1-1.4-2-2.7-2.1-3&#10;&#9;&#9;&#9;c-0.2-0.7-1.6,1.7-2.2,3.5c1.9,1.4,3.3,1.8,4.3,2.3c0.5,0.3,0.9,0.6,1.1,1c0.7,1.3,3.3,1,4,1.2c0.6,0.1,1.9,4.8,1.9,4.8&#10;&#9;&#9;&#9;s-1.1-0.9-3.6-2.8c-0.9-0.7-2.2-1.6-3.4-2.4c-2-1.2-4-2.2-5.3-2.3c-2.1,0,2.7-7.3,4.5-10.8c0.3-0.6,0.6-1.4,0.8-2.2&#10;&#9;&#9;&#9;c0.8-2.9,1-6.5,0-7.4c-0.2-0.2-0.6-0.3-0.9-0.2c-2.4,0.9-1.7,3.6-2.7,4.1c-1,0.5-1.8-2.2-1.3-4.9c0.5-2.6,6.2-6.6,1.3-14.5&#10;&#9;&#9;&#9;c-4.7-6.7-5.9-5.4-5.9-5.4s7.8,7.3,4.3,14.4c-3.5,7.1-1.6,11.5,0.6,12.6c-0.6,2.9-3.1,5.5-4.1,3.1c-1-2.4,0.9-5-0.9-6.9&#10;&#9;&#9;&#9;c-1.8-2-0.3-4.9,0.5-9.5c0.8-4.6-3.3-7.5-4.3-8c1.5,5.2,1.6,9.2,0.5,14c-1.1,4.8,1.9,6.9,1.9,9.4c0,2.5,1,5.4,3.4,4.9&#10;&#9;&#9;&#9;c2.4-0.6,3.2-2.9,4-4.5c0.8-1.6,1.2,1,0,3.5c-1.2,2.5-1.7,3.4-3.3,3.3c-1.6,0-1.6,0.4-1.5,3.1c0.1,2.7-0.3,0.5-0.3,0.5&#10;&#9;&#9;&#9;s-4.4-2.6-6-7.8c-1.6-5.3-3-6.4-5.1-8.6c-2.1-2.2-3.2-7.5-1.9-9.5c1.3,2.3,3.1,4.5,5.1,4.6c-0.2,3.5,0.7,8.3,2.2,10.9&#10;&#9;&#9;&#9;c1.4,2.6,4.1,5.8,4.7,7.1c0.6,1.3,2.3-1.2,2.3-1.2s-2.2,0.3-4.1-4.8c-1.9-5.1-2.4-6.6-3.2-7.7c-0.7-1.1,0.3-5.6,0.9-7.5&#10;&#9;&#9;&#9;c0.6-1.8,1-8.8-3.1-12.5c-4-3.7-2.8-4.4-0.9-3.9c1.9,0.6,7.9,1.1,9.7,6c1.8,4.9,2.6,7.1,0.1,11.3l-0.4,1.7c0,0,4-5.6,3.4-8.4&#10;&#9;&#9;&#9;c-0.6-2.8-2.5-8.3-6-9.8c-3.5-1.5-5.9-3.3-6.5-6.9l-1-0.1c0,0,0.4,4,1.1,4.6c-3.9-0.8-4.3-1.4-5.1-0.5c0.5,1.5,0.6,3.3-0.6,5&#10;&#9;&#9;&#9;l-1.1,1.5l3.6-2.7l0.6,1c0,0-1.7,5.3,0.4,8.1c-0.3-2.5,0.9-6.4,0.9-6.4l1.3,1.8c0,0-1.5,6.1,0,7.3c0.2-3.1,1.3-5.5,1.3-5.5&#10;&#9;&#9;&#9;s4.7,9-1,9.4c-2.2-0.5-2.6-4.1-4.1-7.2c-1.5-3.1-3.3-3.7-3.3-3.7s2.5,3.6,1.3,6.7c-1.2,3.1-2.4,7.4,0.4,11.3&#10;&#9;&#9;&#9;c2.8,3.9,5.2,4.2,5.9,9.1c0.6,4.9,5.8,8.2,8.7,8.7c0,0,0.7,5.7,0.9,7.3c0.2,1.6-0.7,3.7-0.9,5c-4.2,0.1-12.1-2.1-16.4-2.7&#10;&#9;&#9;&#9;c-0.2,0-0.5-0.1-0.7-0.1c-3.9-0.6-8.4-1.7-11.9,1.6c-0.3,0.3-0.6,0.6-0.8,0.9c-3.4,4.4-0.9,8,0.8,11.2c0.1,0.2,0.2,0.4,0.3,0.6&#10;&#9;&#9;&#9;c1.7,3.4,4.6,1.3,9.2,2.1c0.9,0.1,1.7,0.2,2.4,0.3c2.9,0.3,4,0.2,4,0.2s-2.1-0.5-4-1.8c-0.9-0.6-1.8-1.5-2.4-2.6&#10;&#9;&#9;&#9;c-1.7-3.4-0.8-6-2.8-7.7c-2-1.8-2.4-2.8-2.4-2.8s4-0.4,7.6,0.1c1.5,0.2,2.9,0.6,4,1.2c3.7,2.1,11.2,3.5,13.1,3.2&#10;&#9;&#9;&#9;c0.1,2,1,4.1,4.1,2.8c-1.3-0.3-2.2-3.1-2.2-3.1h0.9c0,0,2.4,5.9,5.4,3.2c0.3-0.2,0.6-0.6,0.8-1c-0.3,0-0.6,0-0.8,0&#10;&#9;&#9;&#9;c-1.6-0.1-3.1-1-2.7-2c0.6,0.1,1.6,0.1,2.7-0.1c2.5-0.3,5.8-1.1,7.3-1.7c0.3,1.9,1.4,3.2,2.2,3.7c0.7,0.6,1.3,1.8,1.8,2.8&#10;&#9;&#9;&#9;c0.5,1,1.6,1,0.9,2.8c-0.7,1.8,0.7,4.8,3.1,4.1c-1.3-1.3-1.7-2.6-1.4-3.2c0.3-0.6,1.6,0.2,1.9,1.4c0.3,1.2,3.8,4,5.1,1.3&#10;&#9;&#9;&#9;c1.3-2.7,1.1-3.3-0.8-2.1c-1.9,1.2-4.3,0.5-3.6-1.8c1.9,0.5,3.5-0.7,2.7-3.1c-1.4,1.4-2.4,1.6-2.5,0.6c-0.1-1-1.9-1.8-1.9-1.8&#10;&#9;&#9;&#9;s0.3-2.1-0.6-2.4c-0.9-0.3-5.7-2.8-2.8-3.6c2.9-0.8,10.2-5.2,12.6-12c2.4-6.8,0.2-16.1-5.5-22.1C527.2,169.4,518,162.7,512.8,159z&#10;&#9;&#9;&#9; M512.8,204.7c-1.1,0.2-2,0.3-2.5,0.3c-1.7,0-0.9-1.7-2-3.3c-1.1-1.7-0.9-5.7-0.9-5.7s4.3,1.2,5.5,2.4c0.1,0.1,0.1,0.1,0.1,0.2&#10;&#9;&#9;&#9;c0.9,1.3,5.4,4.9,5.4,4.9S515.2,204.3,512.8,204.7z" style="fill: #ce8eeb;"/>
		<path class="st2" d="M509.8,101.2c0.2,0.3,0.5,0.6,0.7,0.9C510.4,101.8,510.2,101.5,509.8,101.2z" style="fill: #ce8eeb;"/>
		<path class="st2" d="M494.1,140.6c-0.5-3.5-3.4-5.3-3.4-5.3s1.6,4.7,2.3,7.2c0.7,2.5,1,4.3-0.5,5.4c-0.8,0.6-3,0.5-5,0.3&#10;&#9;&#9;&#9;c-1.9-0.2-3.5-0.5-3.5-0.5s-0.4-1,1.5-1.8c0.5-0.2,1.2-0.3,2-0.3c2.1,0,4.7,0.4,4.7,0.4s-0.3-0.3-1.4-1.9&#10;&#9;&#9;&#9;c-1.1-1.6-2.2-2.5-2.4-4.2c-0.2-1.7,2.1-6.2,1.8-9.4c-0.3-3.2,1.7-5.9,5.5-12.9c3.8-7,4.5-11.9,1.8-17.7c-2.6-5.5-9.2-6.1-9.9-6.2&#10;&#9;&#9;&#9;l-0.1,0c-2.8,0.4-0.1,0.7-1.1,1.7c-1,0.9-1.9,2.5,0,1.7c0.5-0.2,0.9-0.4,1.2-0.4c1.1-0.2,1.8,0.1,3.4,0.2c2.1,0.1,1.3,1.2,1,3.7&#10;&#9;&#9;&#9;c1.9-0.1,1.7-3.2,1.7-3.2l1.4,1.3c1.5,2.4-1.9,2.8-1.9,2.8s2,1,3.7-0.6c1.5,4.5-1.7,2.5-3.1,3.1c-1.4,0.6-0.8,2.2-0.8,2.2&#10;&#9;&#9;&#9;s1.2-1.5,1.9-1.3c0.8,0.2,1.7,0.4,2.9-0.4c0.7,1.8-0.7,2.6-3.6,2.3c-2.8-0.3-2.6,2.1-2.6,2.1s1.3-1.3,2.4-1.2&#10;&#9;&#9;&#9;c1.1,0.2,1.9,0.6,3.6,0c0.1,2-3.3,2.2-4.7,1.8c-1.5-0.4-2.2,1.3-2.2,1.3s1-0.6,2.2-0.1c1.1,0.4,2.6,0.7,3.7,0.3&#10;&#9;&#9;&#9;c0.4,1.9-3.2,1.1-5.2,0.6c-2-0.5-3.2,0.7-2.4,2.1c0.1-0.3,1.3-1.2,2.6-0.6c1.3,0.5,2.9,0.6,4.3,0.5c0,2.1-2.9,2.1-4.2,1.9&#10;&#9;&#9;&#9;c-1.1-0.1-2.7-1-4.1-1.3c-0.2-0.1-0.5-0.1-0.7-0.1c-1.6-0.1-1,3-1,3s0.6-1,1.7-1.2c0.4-0.1,0.8-0.1,1.2,0.1&#10;&#9;&#9;&#9;c1.8,0.6,3.3,1.6,5.4,1.5c-1.1,2-3.7,1.4-6.6,0.6c-0.4-0.1-0.8-0.2-1.2-0.3c-3.4-0.9-4.5,1.7-2.9,3c0.4-0.8,2.1-2.3,3.7-1.3&#10;&#9;&#9;&#9;c0.1,0.1,0.3,0.2,0.4,0.3c1.5,0.8,3.2,0.9,4.4,0.9c-1.3,2-2.7,2-4.4,1.6c-1.2-0.3-2.6-0.8-4.1-0.9c-3.6-0.1-5,5.4-5,5.4&#10;&#9;&#9;&#9;s1.9-2.2,4.3-3.7c2.4-1.6,2.8,1.5,4.3,1.3c0.1,0,0.3,0,0.4-0.1c1.4-0.3,2.7-1,1.5,1c-0.4,0.6-0.9,1-1.5,1.3&#10;&#9;&#9;&#9;c-1.5,0.8-3.6,0.7-5.7,0.9c-2.9,0.2-6,3.9-4.1,4.6c1.4-2.6,3.7-3,6.2-3c2.1,0,2.2,0.2,3.5-0.4c0.3-0.2,0.7-0.4,1.2-0.6&#10;&#9;&#9;&#9;c-0.2,0.9-0.6,1.6-1.2,2.1c-1.4,1.1-3.6,1.4-5.4,1.5c-2.7,0.1-6.2,2.4-5.7,5.1c0.5-1.7,3.3-2.7,5.1-3.6c1.7-0.9,3.4,0.1,6.1-1.6&#10;&#9;&#9;&#9;c0.1-0.1,0.3-0.2,0.4-0.3c-0.1,0.6-0.2,1.2-0.4,1.8c-1.7,4.2-7.8,7.2-10.8,7.1c3.2,4.3,5.8,1.1,10.8-4.9c0.5-0.6,1-1.2,1.6-1.9&#10;&#9;&#9;&#9;c-0.1,1.4-0.7,2.9-1.6,4.4c-2,3.5-5.5,6.9-6.8,7.8c-2,1.3-2.7-1.7-3.6-2.4c0.6,5.1,4.7,4.1,4.7,4.1s-2.1,1.4-2.4,3.1&#10;&#9;&#9;&#9;c-0.3,1.7-1.9,3.1-3.3,4.2c-0.2,0.1-0.3,0.3-0.4,0.5c-0.6,0.9-0.6,2.1,0,3c0.3,0.4,0.7,0.8,1.2,1.1c2,1.1,2.5,0.3,1.5-0.3&#10;&#9;&#9;&#9;c-0.9-0.5-1.6-3.7,0.5-3.2c-0.4,3.6,0.5,4.4,2.5,4.2c2.1-0.1,2.3-0.8,0.3-1c-2-0.2-0.9-2.2-0.9-2.2s0.7,1.6,2.9,1.9&#10;&#9;&#9;&#9;c2.2,0.3,1.4-4.2,1.4-4.2s0.1,1.1-2.2,1.4c-2.3,0.3-1.8-1.7-1.8-4.2c0-2.5,0.2-3,1.7-2.8c1.1,0.1,2.9,0.7,4.7,0.8&#10;&#9;&#9;&#9;c0.5,0,1,0,1.5-0.1c2.2-0.3,3.8-0.5,5.5-0.4C494.2,148,494.6,144.1,494.1,140.6z" style="fill: #ce8eeb;"/>
		<path class="st2" d="M487.4,177.1c0.1-0.2,0.2-0.5,0.2-0.7c0-0.3-0.1-0.6-0.2-0.9c-0.6-1.4-2.1-2.3-2-1.2c0.2,1.4,0.2,2.3-0.6,1.7&#10;&#9;&#9;&#9;c-0.8-0.6-0.3-2.2-2.5-3.6c-2.2-1.4-1-2.1,0.5-3.2c1.5-1.1,0.5-1.9,1.7-3.2c1.1-1.4,1.1-2.8,0.6-4.4c-0.5-1.6,2.2-4.4,2.2-4.4&#10;&#9;&#9;&#9;l-0.4-1c-0.6,1.2-5.2,4-4.7,5.1c0.5,1.1-1.1,6.6-1.1,6.6s-0.1-4.1-0.5-6c-0.4-1.9-1.3-1.2-0.9,0.4c0.4,1.6-0.4,5.7-0.5,7.7&#10;&#9;&#9;&#9;c-0.1,2-1.3,2.5-0.1,3.1c1.2,0.6,1.7,1.2,0.9,2.4c-0.8,1.2-2.2,4.6,2.4,6c-0.6-0.8-1.5-4.2-0.8-4.4c-0.2,3.5,4.1,5.4,5.1,2.4&#10;&#9;&#9;&#9;c-1.3,0.5-3.6-0.8-3.2-2.2C484,178.5,486.7,178.3,487.4,177.1z" style="fill: #ce8eeb;"/>
		<path class="st2" d="M588.8,155.5c-14.5-35.7-42.4-42.2-42.4-42.2c10.4-8.6,31.1,4.5,43.2,20.3c-20.8-29.4-53.9-46.5-76.8-55.5&#10;&#9;&#9;&#9;c-13.8-5.4-23.9-7.8-25.4-8.2l-0.2,0l0.2,0.2c1.8,1.6,16,14,25.4,27.9c4.2,6.2,7.3,12.7,8,18.6c1.3,11.2-2.7,22-8,27.6&#10;&#9;&#9;&#9;c-2.7,2.8-5.7,4.3-8.5,3.9c-8.3-1.4-5.6-10-5.6-10s-1.8-5-5.7-3.6c0,0,3.2,4.3,3.4,8.4c0.2,4,0.1,10.5,11.3,8.5&#10;&#9;&#9;&#9;c1.7-1.1,3.4-2,5-2.6c10.1-4.1,17.3,0.8,14.2,17.6c0,0,7.2-12.9,4.6-35.5c-1.8-12.8-2.6-25.5,3.4-17.9c6.1,7.7,18.8,31,19.4,49.5&#10;&#9;&#9;&#9;c0.6,18.5-10.1,56.8-10.1,56.8s29.3-41.7,18.5-74.4c4-5.9,18.8,17.2,19.8,19c-11.9-28-27.8-40.2-27.8-40.2&#10;&#9;&#9;&#9;C577.7,135.9,588.8,155.5,588.8,155.5z" style="fill: #ce8eeb;"/>
		<path class="st2" d="M474.8,147.4c-0.3-2,0.3-4.3,0.8-5.7c0.3-0.7,0.5-1.2,0.5-1.2c-0.2,0-0.3,0-0.5,0c-2.9,0-3.3,3.7-3.3,3.7&#10;&#9;&#9;&#9;s3.5,6.1-2.6,8.6c-6.1,2.5-16.5-8-17.8-21.1c-1.7-15.7,17.6-41.2,17.6-41.2s-49.1,23.2-67.1,65.9c6.5-14.1,20.1-27.5,29.4-22.8&#10;&#9;&#9;&#9;c0,0-20.1,9.7-25.2,39.3c0,0,5.1-16.8,20.5-30c0,0-10,12-14.4,35.3c0.4-1.6,7.8-21.7,11.8-17.8c-2.8,26.7,26.6,53.4,26.6,53.4&#10;&#9;&#9;&#9;s-14.5-27.3-17.2-41.5c-2.7-14.1,3.1-34.1,6.4-40.9c3.3-6.9,4.8,2.9,5.6,13c1.8,17.6,9.4,26.2,9.4,26.2&#10;&#9;&#9;&#9;c-6-14.2,1.2-18.6,12.1-14.7C476.5,155.4,475.3,150.5,474.8,147.4z" style="fill: #ce8eeb;"/>
	</g></g></svg>